<?xml version="1.0" encoding="utf-8"?>
<!-- Generator: Adobe Illustrator 16.0.0, SVG Export Plug-In . SVG Version: 6.00 Build 0)  -->
<!DOCTYPE svg PUBLIC "-//W3C//DTD SVG 1.1//EN" "http://www.w3.org/Graphics/SVG/1.1/DTD/svg11.dtd">
<svg version="1.1" id="Layer_1" xmlns="http://www.w3.org/2000/svg" xmlns:xlink="http://www.w3.org/1999/xlink" x="0px" y="0px"
	 width="134px" height="63px" viewBox="0 0 134 63" enable-background="new 0 0 134 63" xml:space="preserve">
<g>
	<path fill-rule="evenodd" clip-rule="evenodd" fill="#2574BB" d="M54.67,44.235l-1.372-3.948c-0.036-0.117-0.088-0.317-0.148-0.603
		c-0.062-0.287-0.125-0.632-0.193-1.047c-0.073,0.397-0.143,0.754-0.208,1.068c-0.066,0.313-0.117,0.524-0.15,0.63l-1.322,3.899
		H54.67L54.67,44.235z M46.886,48.886l4.65-12.227h2.991l4.718,12.227h-2.972l-0.994-2.599h-4.737l-0.849,2.599H46.886
		L46.886,48.886z M60.199,37.333c0-0.378,0.135-0.702,0.408-0.976c0.273-0.276,0.596-0.412,0.975-0.412
		c0.387,0,0.715,0.133,0.989,0.403c0.277,0.271,0.413,0.598,0.413,0.984c0,0.386-0.136,0.716-0.413,0.987
		c-0.274,0.272-0.602,0.411-0.989,0.411c-0.379,0-0.702-0.139-0.975-0.42C60.334,38.032,60.199,37.708,60.199,37.333L60.199,37.333z
		 M60.404,48.886v-8.189h2.375v8.189H60.404L60.404,48.886z M67.485,42.801c0.238-0.797,0.583-1.393,1.031-1.787
		c0.451-0.393,0.999-0.591,1.664-0.591c0.146,0,0.396,0.028,0.74,0.084c0.069,0.009,0.118,0.02,0.152,0.023l-0.36,2.56
		c-0.175-0.073-0.355-0.131-0.537-0.17c-0.179-0.037-0.37-0.052-0.571-0.052c-0.721,0-1.244,0.185-1.56,0.557
		c-0.318,0.368-0.477,0.99-0.477,1.859v3.602h-2.376v-8.189h2.341L67.485,42.801z"/>
	<path fill-rule="evenodd" clip-rule="evenodd" fill="#2574BB" d="M75.681,48.886l-4.512-12.227h2.885l2.383,7.624
		c0.041,0.157,0.111,0.446,0.209,0.869c0.093,0.424,0.194,0.904,0.3,1.444c0.074-0.525,0.148-0.988,0.24-1.392
		c0.086-0.408,0.17-0.743,0.252-1.006l2.412-7.54h2.857l-4.549,12.227H75.681z"/>
	<path fill-rule="evenodd" clip-rule="evenodd" fill="#2574BB" d="M83.695,37.333c0-0.378,0.141-0.702,0.41-0.978
		c0.274-0.274,0.598-0.41,0.976-0.41c0.386,0,0.712,0.133,0.988,0.403c0.278,0.271,0.414,0.598,0.414,0.984
		c0,0.386-0.136,0.716-0.414,0.987c-0.276,0.272-0.603,0.411-0.988,0.411c-0.378,0-0.701-0.141-0.976-0.42
		C83.836,38.032,83.695,37.708,83.695,37.333L83.695,37.333z M83.902,48.886v-8.189h2.374v8.189H83.902z"/>
	<polygon fill-rule="evenodd" clip-rule="evenodd" fill="#2574BB" points="88.982,48.886 88.982,42.559 87.837,42.559 
		87.837,40.696 88.982,40.696 88.982,37.978 91.358,37.978 91.358,40.696 92.506,40.696 92.506,42.559 91.358,42.559 91.358,48.886 
			"/>
	<path fill-rule="evenodd" clip-rule="evenodd" fill="#2574BB" d="M100.005,44.451c0-0.735-0.186-1.315-0.554-1.743
		c-0.37-0.43-0.872-0.643-1.499-0.643c-0.647,0-1.156,0.213-1.525,0.638c-0.373,0.426-0.555,1.009-0.555,1.748
		c0,0.74,0.182,1.316,0.546,1.729c0.365,0.413,0.87,0.619,1.513,0.619c0.66,0,1.171-0.206,1.532-0.619
		C99.826,45.768,100.005,45.191,100.005,44.451L100.005,44.451z M102.178,48.561h-2.31l0.035-1.179
		c-0.32,0.521-0.708,0.898-1.162,1.144c-0.454,0.239-1.005,0.36-1.656,0.36c-1.083,0-1.959-0.407-2.626-1.211
		c-0.664-0.807-0.996-1.872-0.996-3.195c0-1.382,0.328-2.455,0.979-3.224c0.656-0.772,1.563-1.156,2.729-1.156
		c0.605,0,1.139,0.136,1.597,0.407c0.459,0.274,0.844,0.678,1.154,1.215v-1.351h2.257V48.561z"/>
	<path fill-rule="evenodd" clip-rule="evenodd" fill="#2574BB" d="M106.757,48.886h-2.376v-8.189h2.376v1.285
		c0.393-0.542,0.805-0.936,1.247-1.186c0.44-0.25,0.947-0.373,1.508-0.373c0.678,0,1.235,0.138,1.66,0.416
		c0.426,0.278,0.727,0.699,0.903,1.256c0.378-0.55,0.808-0.971,1.289-1.249c0.479-0.285,1.006-0.423,1.58-0.423
		c0.577,0,1.067,0.107,1.477,0.321c0.398,0.216,0.711,0.535,0.932,0.962c0.121,0.233,0.198,0.497,0.252,0.798
		c0.048,0.286,0.073,0.734,0.073,1.339V44.1v4.786h-2.373v-4.052c0-0.995-0.104-1.658-0.307-1.986
		c-0.203-0.328-0.557-0.491-1.063-0.491c-0.614,0-1.053,0.226-1.334,0.682c-0.275,0.459-0.409,1.204-0.409,2.238v3.609h-2.376
		v-4.052c0-0.963-0.093-1.612-0.284-1.951c-0.19-0.343-0.516-0.51-0.98-0.51c-0.63,0-1.085,0.229-1.37,0.688
		c-0.282,0.457-0.425,1.195-0.425,2.215V48.886z"/>
	<rect x="120.041" y="40.696" fill-rule="evenodd" clip-rule="evenodd" fill="#2574BB" width="2.376" height="8.189"/>
	<path fill-rule="evenodd" clip-rule="evenodd" fill="#2574BB" d="M119.839,37.838c0-0.378,0.135-0.706,0.404-0.978
		c0.271-0.272,0.6-0.408,0.978-0.408c0.387,0,0.713,0.131,0.988,0.406c0.274,0.267,0.413,0.595,0.413,0.979
		c0,0.389-0.139,0.714-0.413,0.987c-0.275,0.275-0.602,0.411-0.988,0.411c-0.378,0-0.706-0.139-0.978-0.417
		C119.974,38.539,119.839,38.213,119.839,37.838z"/>
	<path fill-rule="evenodd" clip-rule="evenodd" fill="#2574BB" d="M124.829,48.886v-8.189h2.326v1.285
		c0.432-0.536,0.89-0.927,1.381-1.179c0.492-0.257,1.038-0.38,1.643-0.38c0.632,0,1.164,0.107,1.595,0.321
		c0.432,0.216,0.773,0.537,1.022,0.978c0.122,0.231,0.207,0.487,0.26,0.771c0.058,0.287,0.081,0.735,0.081,1.35V44.1v4.786h-2.376
		v-4.052c0-1.009-0.116-1.673-0.35-1.994c-0.232-0.324-0.639-0.483-1.201-0.483c-0.328,0-0.631,0.069-0.906,0.202
		c-0.274,0.139-0.508,0.331-0.687,0.582c-0.146,0.193-0.253,0.417-0.315,0.666c-0.064,0.25-0.097,0.634-0.097,1.147v0.322v3.609
		H124.829z"/>
	<path fill-rule="evenodd" clip-rule="evenodd" fill="#2574BB" d="M25.631,24.189c-0.766,0.472-5.338,1.194-6.668,1.33
		c-4.47,0.46-9.542-0.098-13.624-1.777c-0.997-0.411-1.765-0.835-2.625-1.32c-0.357-0.2-2.235-1.324-2.371-1.465
		c-0.581-0.036-0.221-0.057-0.337,0.119c0.286,1.103,3.54,3.318,4.598,3.966c10.674,6.541,18.949,4.085,20.885,4.451l0.101,1.709
		c-3.603,0.335-7.331,0.251-10.923-0.325c-1.075-0.173-2.357-0.586-3.277-0.653c1.218,0.867,4.833,2.15,6.633,2.685
		c2.783,0.824,4.909,1.072,7.929,1.534c1.331,3.273,2.194,12.661,8.15,11.512c1.182-0.224,2.644-1.215,2.969-2.064l-0.624,0.309
		c-0.461,0.725-3.526,1.791-6.275-2.263c-1.097-1.615-2.509-4.912-2.727-7.362c2.433-0.073,4.492,0.014,6.92-0.222
		c1.026-0.102,5.84-1.017,6.126-0.967c0.283-1.418,0.385-3.73,0.373-5.203c-0.701,0.011-2.72,0.608-3.469,0.794
		c-1.112,0.274-2.225,0.526-3.366,0.789c-1.798,0.419-5.264,1.228-7.12,1.254l-0.1-1.749c5.954-0.76,9.436-2.274,14.007-3.099
		c0.05-0.938-0.166-5.364-0.508-5.941c-0.168-0.146,0.25-0.187-0.479-0.1l-3.273,0.788c-1.384,0.415-8.897,2.813-9.549,2.899
		c0.121-2.552,1.29-6.258,2.399-7.921c2.484-3.722,4.983-1.169,5.653,0.67c-0.256,0.256-0.5,0.279-0.776,0.451
		c0.2,0.375,0.733,0.808,1.067,1.149c0.387,0.394,0.862,0.759,0.971,1.123c0.429,0.208,0.295,0.364,0.664,0.369l0.027-3.753
		l-0.83,0.3l-0.585-1.102c-0.227-0.109-0.702-0.857-1.064-1.191c-0.375-0.341-1.095-0.69-1.364-0.91
		c-2.067-0.377-1.518-0.078-2.847,0.286c0.523-0.935,1.723-2.184,2.835-2.657c2.07-0.877,2.877,0.067,4.143,0.759
		c-0.964-1.495-3.332-3.008-5.756-1.578c-1.276,0.752-2.286,2.129-2.995,3.426C26.684,16.649,26.041,20.319,25.631,24.189z"/>
	<path fill-rule="evenodd" clip-rule="evenodd" fill="#00A651" d="M28.37,12.063c0.169,0.274-0.127,0.487,0.291-0.034
		c0.314-0.393,0.686-1.388,1.866-2.443c4.009-3.582,7.753,0.537,8.757,3.378c0.477,0.484,1.983,4.865,1.902,5.761
		c0.632,0.778,0.978,7.524,0.983,8.209c0.012,0.971-0.136,7.311-0.857,8.384c0.099,0.77-2.183,8.068-5.684,5.664
		c-0.568-0.391-1.547-1.564-1.772-2.471l0.844-0.291c-0.235-0.478-2.417-2.604-2.682-2.721l-0.071,3.761l0.869-0.235
		c0.522,1.463,1.963,2.64,2.106,2.9c0.732,0.313,1.25,0.753,2.364,0.678c1.088-0.073,1.438-0.588,2.161-0.947
		c-0.48,1.725-2.706,4.747-4.862,5.325c-2.521,0.678-4.375-1.185-5.591-2.961c-0.229-0.329-0.327-0.589-0.649-0.809
		c0.212,1.179,1.313,2.283,1.677,3.217c0.047,0.035,0.044,0.028,0.143,0.147c0.009,0.011,0.122,0.159,0.14,0.185
		c0.082,0.111,0.13,0.193,0.233,0.331c0.21,0.282,0.313,0.406,0.513,0.614c2.284,2.363,4.712,1.455,5.283,1.561
		c0.107-0.099,0.063-0.073,0.233-0.177l0.936-0.416c1.054-0.519,2.055-1.427,2.752-2.322c0.802-1.027,1.594-2.487,2.11-3.744
		l0.36-0.603c-0.009-0.188,1.149-3.939,1.321-4.713c0.185-0.821,0.743-4.897,0.885-5.193c1.057-0.67,6.551-1.793,8.214-2.043
		c8.328-1.251,13.446,0.919,20.483,4.464c1.168,0.587,2.336,1.249,3.38,1.614l-1.031-0.835l-4.031-2.814
		c-0.041-0.028-0.225-0.139-0.27-0.178c-0.246-0.221-0.145-0.043-0.227-0.336c-0.453-0.042-2.059-1.258-2.562-1.606
		c-2.462-1.704-5.532-3.18-8.665-3.845c-2.466-0.523-5.17-0.667-7.818-0.463c-1.265,0.099-2.51,0.235-3.75,0.419
		c-0.802,0.118-2.979,0.628-3.575,0.563l-0.003-1.882c4.234-0.899,8.534-1.377,13.163-1.054c2.084,0.145,4.346,0.48,6.187,1.022
		c3.173,0.935,3.934,2.008,4.819,2.361c-0.69-1.427-2.669-3.047-4.036-3.922l-1.542-0.983c-0.011-0.042-0.043-0.045-0.063-0.07
		c-0.433,0.003-2.177-0.916-2.83-1.162c-0.973-0.366-2.002-0.672-3.078-0.969c-1.071-0.297-2.257-0.51-3.375-0.682
		c-1.092-0.167-2.678-0.218-3.58-0.373H46.41c-0.655,0.025-1.374,0.194-2.028,0.038c-0.236-0.869-0.339-1.813-0.563-2.678
		c-0.216-0.832-0.463-1.625-0.729-2.425c-0.281-0.843-0.581-1.545-0.933-2.336c-0.255-0.572-0.988-1.705-1.002-2.09
		c-0.242-0.152-0.074-0.014-0.276-0.235l-0.468-0.66c-0.938-1.253-2.306-1.965-2.426-2.266c-0.531-0.062-1.049-0.408-1.612-0.57
		C31.308,4.656,29.065,11.206,28.37,12.063z"/>
	<path fill-rule="evenodd" clip-rule="evenodd" d="M48.143,56.771V52.43h0.828l1.734,2.909V52.43h0.792v4.341h-0.854l-1.71-2.857
		v2.857H48.143L48.143,56.771z M52.399,56.771V52.43h3.124v0.731h-2.271v0.964h2.112v0.734h-2.112v1.176h2.354v0.735H52.399
		L52.399,56.771z M58.292,55.174v-0.731h1.834v1.733c-0.18,0.177-0.436,0.333-0.777,0.47c-0.337,0.136-0.68,0.205-1.026,0.205
		c-0.443,0-0.827-0.095-1.154-0.286c-0.328-0.194-0.575-0.465-0.74-0.821c-0.166-0.354-0.247-0.743-0.247-1.16
		c0-0.454,0.093-0.854,0.277-1.209c0.184-0.35,0.452-0.622,0.809-0.81c0.269-0.145,0.606-0.217,1.008-0.217
		c0.523,0,0.934,0.111,1.229,0.339c0.294,0.228,0.483,0.541,0.568,0.943l-0.849,0.16c-0.06-0.21-0.172-0.383-0.337-0.506
		c-0.162-0.123-0.366-0.184-0.611-0.184c-0.373,0-0.668,0.123-0.887,0.364c-0.219,0.244-0.33,0.604-0.33,1.084
		c0,0.518,0.111,0.901,0.333,1.162c0.223,0.257,0.513,0.387,0.874,0.387c0.179,0,0.358-0.037,0.536-0.108
		c0.178-0.07,0.333-0.159,0.46-0.263v-0.553H58.292L58.292,55.174z M64.716,56.771h-0.92l-0.365-0.99h-1.693l-0.35,0.99h-0.903
		l1.638-4.341h0.903L64.716,56.771L64.716,56.771z M63.155,55.047l-0.586-1.607L62,55.047H63.155L63.155,55.047z M65.685,56.771
		h0.854v-3.609h1.243V52.43h-3.347v0.731h1.25V56.771L65.685,56.771z M68.305,56.771V52.43h0.857v4.341H68.305L68.305,56.771z
		 M71.052,56.771l-1.511-4.341h0.929l1.066,3.213l1.031-3.213h0.908l-1.504,4.341H71.052L71.052,56.771z M73.905,56.771V52.43h3.122
		v0.731H74.76v0.964h2.11v0.734h-2.11v1.176h2.352v0.735H73.905L73.905,56.771z M83.057,56.771h-0.921l-0.363-0.99h-1.691
		l-0.354,0.99h-0.902l1.638-4.341h0.904L83.057,56.771L83.057,56.771z M81.494,55.047l-0.587-1.607l-0.569,1.607H81.494
		L81.494,55.047z M83.484,56.771V52.43h0.852v4.341H83.484L83.484,56.771z M85.149,56.771V52.43h1.794
		c0.45,0,0.778,0.036,0.985,0.116c0.206,0.075,0.367,0.213,0.49,0.413c0.121,0.202,0.184,0.428,0.184,0.686
		c0,0.325-0.089,0.596-0.278,0.806c-0.184,0.215-0.46,0.349-0.831,0.402c0.184,0.113,0.335,0.23,0.451,0.364
		c0.123,0.134,0.284,0.367,0.485,0.706l0.518,0.848h-1.021l-0.61-0.95c-0.22-0.336-0.369-0.549-0.449-0.637
		c-0.084-0.088-0.168-0.147-0.259-0.179c-0.091-0.032-0.233-0.05-0.432-0.05h-0.175v1.815H85.149L85.149,56.771z M86.002,54.263
		h0.633c0.409,0,0.665-0.015,0.764-0.051c0.102-0.034,0.184-0.098,0.242-0.186c0.055-0.086,0.086-0.197,0.086-0.326
		c0-0.146-0.039-0.264-0.112-0.355c-0.08-0.089-0.186-0.147-0.321-0.169c-0.071-0.011-0.277-0.015-0.624-0.015h-0.667V54.263
		L86.002,54.263z M91.015,56.771V52.43h0.854v4.341H91.015L91.015,56.771z M92.506,54.626c0-0.444,0.065-0.818,0.192-1.12
		c0.095-0.221,0.227-0.42,0.394-0.596c0.166-0.174,0.351-0.307,0.545-0.391c0.264-0.111,0.565-0.172,0.91-0.172
		c0.625,0,1.119,0.198,1.491,0.598c0.374,0.399,0.563,0.951,0.563,1.659c0,0.7-0.188,1.254-0.557,1.65
		c-0.371,0.395-0.867,0.596-1.484,0.596c-0.628,0-1.129-0.198-1.503-0.593C92.689,55.862,92.506,55.321,92.506,54.626L92.506,54.626
		z M93.382,54.596c0,0.492,0.112,0.865,0.332,1.12c0.226,0.255,0.501,0.382,0.843,0.382c0.343,0,0.621-0.127,0.839-0.38
		c0.218-0.251,0.328-0.63,0.328-1.135c0-0.498-0.107-0.872-0.319-1.115c-0.211-0.244-0.494-0.367-0.848-0.367
		c-0.353,0-0.635,0.123-0.851,0.374C93.49,53.724,93.382,54.096,93.382,54.596L93.382,54.596z M97.269,56.771V52.43h0.824
		l1.737,2.909V52.43h0.79v4.341h-0.854l-1.712-2.857v2.857H97.269L97.269,56.771z M101.299,55.364l0.829-0.087
		c0.05,0.288,0.151,0.494,0.305,0.633c0.151,0.132,0.355,0.2,0.613,0.2c0.272,0,0.48-0.062,0.621-0.181
		c0.136-0.117,0.206-0.258,0.206-0.417c0-0.105-0.027-0.191-0.085-0.266c-0.061-0.073-0.162-0.134-0.305-0.186
		c-0.102-0.036-0.328-0.097-0.682-0.189c-0.454-0.119-0.775-0.261-0.956-0.434c-0.262-0.237-0.392-0.531-0.392-0.876
		c0-0.221,0.063-0.43,0.187-0.621c0.12-0.194,0.296-0.342,0.523-0.443c0.229-0.1,0.505-0.15,0.829-0.15
		c0.526,0,0.925,0.118,1.193,0.36c0.269,0.244,0.403,0.566,0.42,0.969l-0.855,0.03c-0.034-0.225-0.112-0.387-0.232-0.483
		c-0.122-0.098-0.299-0.147-0.536-0.147c-0.246,0-0.438,0.053-0.578,0.155c-0.089,0.071-0.134,0.16-0.134,0.272
		c0,0.102,0.044,0.192,0.127,0.265c0.105,0.094,0.367,0.19,0.779,0.292c0.417,0.1,0.721,0.205,0.918,0.315
		c0.198,0.103,0.354,0.25,0.467,0.44c0.108,0.184,0.166,0.416,0.166,0.689c0,0.249-0.064,0.483-0.199,0.702
		c-0.137,0.216-0.327,0.379-0.568,0.48c-0.246,0.108-0.554,0.162-0.921,0.162c-0.536,0-0.941-0.127-1.229-0.382
		C101.524,56.216,101.354,55.849,101.299,55.364L101.299,55.364z M107.092,56.771V52.43h2.899v0.731h-2.044v1.033h1.766v0.731
		h-1.766v1.845H107.092L107.092,56.771z M110.514,54.626c0-0.444,0.067-0.818,0.194-1.12c0.097-0.221,0.227-0.42,0.396-0.596
		c0.163-0.174,0.347-0.307,0.545-0.391c0.264-0.111,0.565-0.172,0.909-0.172c0.623,0,1.12,0.198,1.493,0.598
		s0.561,0.951,0.561,1.659c0,0.7-0.184,1.254-0.555,1.65c-0.368,0.395-0.865,0.596-1.486,0.596c-0.629,0-1.128-0.198-1.499-0.593
		C110.704,55.862,110.514,55.321,110.514,54.626L110.514,54.626z M111.396,54.596c0,0.492,0.11,0.865,0.329,1.12
		c0.223,0.255,0.501,0.382,0.843,0.382c0.341,0,0.622-0.127,0.837-0.38c0.219-0.251,0.33-0.63,0.33-1.135
		c0-0.498-0.107-0.872-0.321-1.115c-0.212-0.244-0.492-0.367-0.846-0.367c-0.353,0-0.635,0.123-0.851,0.374
		C111.502,53.724,111.396,54.096,111.396,54.596L111.396,54.596z M115.276,56.771V52.43h1.795c0.453,0,0.777,0.036,0.984,0.116
		c0.205,0.075,0.367,0.213,0.489,0.413c0.126,0.202,0.186,0.428,0.186,0.686c0,0.325-0.091,0.596-0.279,0.806
		c-0.183,0.215-0.461,0.349-0.826,0.402c0.178,0.113,0.332,0.23,0.448,0.364c0.12,0.134,0.282,0.367,0.483,0.706l0.518,0.848h-1.021
		l-0.61-0.95c-0.22-0.336-0.367-0.549-0.448-0.637c-0.085-0.088-0.166-0.147-0.259-0.179c-0.091-0.032-0.233-0.05-0.432-0.05h-0.171
		v1.815H115.276L115.276,56.771z M116.133,54.263h0.628c0.41,0,0.664-0.015,0.766-0.051c0.103-0.034,0.182-0.098,0.241-0.186
		c0.057-0.086,0.085-0.197,0.085-0.326c0-0.146-0.039-0.264-0.111-0.355c-0.078-0.089-0.184-0.147-0.321-0.169
		c-0.07-0.011-0.277-0.015-0.623-0.015h-0.664V54.263L116.133,54.263z M121.195,56.771v-4.312h0.854v3.576h2.119v0.735H121.195
		L121.195,56.771z M124.743,56.771V52.43h0.854v4.341H124.743L124.743,56.771z M126.408,56.771V52.43h2.902v0.731h-2.047v1.033h1.77
		v0.731h-1.77v1.845H126.408L126.408,56.771z M130.01,56.771V52.43h3.125v0.731h-2.271v0.964h2.113v0.734h-2.113v1.176h2.351v0.735
		H130.01z"/>
</g>
</svg>
