<?xml version="1.0" encoding="utf-8"?>
<!-- Generator: Adobe Illustrator 16.0.0, SVG Export Plug-In . SVG Version: 6.00 Build 0)  -->
<!DOCTYPE svg PUBLIC "-//W3C//DTD SVG 1.1//EN" "http://www.w3.org/Graphics/SVG/1.1/DTD/svg11.dtd">
<svg version="1.1" id="Layer_1" xmlns="http://www.w3.org/2000/svg" xmlns:xlink="http://www.w3.org/1999/xlink" x="0px" y="0px"
	 width="140px" height="100px" viewBox="0 0 140 100" enable-background="new 0 0 140 100" xml:space="preserve">
<g>
	<path fill-rule="evenodd" clip-rule="evenodd" fill="#2574BB" d="M57.486,62.192l-1.419-4.09c-0.038-0.12-0.092-0.33-0.153-0.622
		c-0.065-0.296-0.129-0.654-0.201-1.083c-0.074,0.41-0.147,0.779-0.215,1.104c-0.068,0.326-0.121,0.542-0.155,0.652l-1.368,4.038
		H57.486L57.486,62.192z M49.427,67.008l4.817-12.658h3.095l4.886,12.658h-3.077l-1.029-2.691h-4.904l-0.881,2.691H49.427
		L49.427,67.008z M63.212,55.044c0-0.393,0.142-0.729,0.423-1.012c0.283-0.284,0.619-0.425,1.011-0.425
		c0.399,0,0.738,0.137,1.024,0.418s0.427,0.62,0.427,1.019c0,0.401-0.142,0.741-0.427,1.022c-0.286,0.283-0.625,0.426-1.024,0.426
		c-0.393,0-0.729-0.145-1.011-0.434C63.354,55.769,63.212,55.434,63.212,55.044L63.212,55.044z M63.425,67.008v-8.48h2.461v8.48
		H63.425L63.425,67.008z M70.76,60.707c0.247-0.825,0.602-1.442,1.066-1.85c0.466-0.408,1.036-0.612,1.723-0.612
		c0.153,0,0.412,0.029,0.769,0.085c0.07,0.012,0.121,0.021,0.155,0.026l-0.37,2.65c-0.183-0.077-0.369-0.136-0.558-0.177
		c-0.186-0.037-0.384-0.054-0.592-0.054c-0.747,0-1.288,0.19-1.614,0.575c-0.33,0.384-0.493,1.025-0.493,1.926v3.73h-2.461v-8.48
		h2.424L70.76,60.707z"/>
	<path fill-rule="evenodd" clip-rule="evenodd" fill="#2574BB" d="M79.246,67.008L74.572,54.35h2.989l2.467,7.893
		c0.044,0.162,0.118,0.463,0.215,0.899c0.098,0.439,0.204,0.938,0.313,1.496c0.074-0.544,0.155-1.023,0.247-1.442
		c0.091-0.423,0.178-0.768,0.264-1.038l2.498-7.808h2.958l-4.711,12.658H79.246z"/>
	<path fill-rule="evenodd" clip-rule="evenodd" fill="#2574BB" d="M87.547,55.044c0-0.393,0.144-0.729,0.423-1.014
		c0.283-0.282,0.619-0.423,1.012-0.423c0.399,0,0.737,0.137,1.022,0.417c0.289,0.282,0.429,0.621,0.429,1.02
		c0,0.401-0.14,0.741-0.429,1.022c-0.285,0.283-0.623,0.426-1.022,0.426c-0.393,0-0.729-0.146-1.012-0.434
		C87.69,55.769,87.547,55.434,87.547,55.044L87.547,55.044z M87.762,67.008v-8.48h2.46v8.48H87.762z"/>
	<polygon fill-rule="evenodd" clip-rule="evenodd" fill="#2574BB" points="93.021,67.008 93.021,60.457 91.834,60.457 
		91.834,58.527 93.021,58.527 93.021,55.712 95.481,55.712 95.481,58.527 96.669,58.527 96.669,60.457 95.481,60.457 95.481,67.008 
			"/>
	<path fill-rule="evenodd" clip-rule="evenodd" fill="#2574BB" d="M104.435,62.417c0-0.762-0.19-1.363-0.573-1.806
		c-0.384-0.446-0.902-0.667-1.553-0.667c-0.669,0-1.195,0.221-1.579,0.661c-0.383,0.441-0.575,1.044-0.575,1.812
		c0,0.766,0.188,1.364,0.567,1.79c0.378,0.428,0.9,0.64,1.567,0.64c0.684,0,1.21-0.212,1.586-0.64
		C104.25,63.781,104.435,63.183,104.435,62.417L104.435,62.417z M106.688,66.671h-2.392l0.035-1.22
		c-0.334,0.538-0.733,0.93-1.205,1.182c-0.47,0.25-1.04,0.375-1.714,0.375c-1.124,0-2.03-0.421-2.721-1.254
		c-0.688-0.836-1.033-1.938-1.033-3.308c0-1.432,0.34-2.544,1.016-3.34c0.679-0.8,1.62-1.197,2.824-1.197
		c0.629,0,1.18,0.14,1.655,0.421c0.476,0.284,0.873,0.703,1.195,1.26V58.19h2.339V66.671z"/>
	<path fill-rule="evenodd" clip-rule="evenodd" fill="#2574BB" d="M111.427,67.008h-2.461v-8.48h2.461v1.328
		c0.406-0.559,0.835-0.964,1.293-1.225c0.456-0.258,0.98-0.386,1.561-0.386c0.704,0,1.277,0.144,1.718,0.429
		c0.442,0.29,0.755,0.725,0.938,1.303c0.394-0.571,0.836-1.008,1.335-1.295c0.497-0.293,1.042-0.437,1.636-0.437
		c0.599,0,1.106,0.111,1.528,0.333c0.413,0.222,0.737,0.552,0.966,0.995c0.123,0.243,0.208,0.514,0.263,0.823
		c0.048,0.301,0.075,0.765,0.075,1.389v0.269v4.954h-2.459v-4.196c0-1.03-0.106-1.717-0.316-2.058
		c-0.21-0.338-0.578-0.51-1.101-0.51c-0.635,0-1.091,0.237-1.38,0.709c-0.285,0.474-0.427,1.245-0.427,2.317v3.737h-2.459v-4.196
		c0-0.996-0.098-1.67-0.295-2.021c-0.194-0.354-0.534-0.527-1.014-0.527c-0.651,0-1.125,0.235-1.419,0.713
		c-0.295,0.474-0.442,1.239-0.442,2.294V67.008z"/>
	<rect x="125.186" y="58.527" fill-rule="evenodd" clip-rule="evenodd" fill="#2574BB" width="2.459" height="8.48"/>
	<path fill-rule="evenodd" clip-rule="evenodd" fill="#2574BB" d="M124.973,55.567c0-0.392,0.142-0.73,0.423-1.012
		c0.281-0.283,0.619-0.426,1.011-0.426c0.398,0,0.738,0.139,1.023,0.42c0.285,0.279,0.427,0.618,0.427,1.018
		c0,0.401-0.142,0.739-0.427,1.024c-0.285,0.283-0.625,0.424-1.023,0.424c-0.392,0-0.729-0.145-1.011-0.434
		S124.973,55.957,124.973,55.567z"/>
	<path fill-rule="evenodd" clip-rule="evenodd" fill="#2574BB" d="M130.143,67.008v-8.48h2.409v1.328
		c0.446-0.552,0.92-0.956,1.43-1.218c0.511-0.265,1.077-0.393,1.7-0.393c0.654,0,1.206,0.111,1.652,0.333
		c0.448,0.222,0.799,0.557,1.058,1.012c0.128,0.237,0.219,0.505,0.271,0.799c0.059,0.298,0.084,0.762,0.084,1.396v0.269v4.954h-2.46
		v-4.196c0-1.042-0.122-1.732-0.364-2.065c-0.241-0.334-0.658-0.502-1.244-0.502c-0.338,0-0.652,0.072-0.938,0.213
		c-0.283,0.143-0.524,0.342-0.712,0.602c-0.151,0.201-0.261,0.432-0.324,0.69c-0.068,0.26-0.1,0.655-0.1,1.187v0.335v3.737H130.143z
		"/>
	<path fill-rule="evenodd" clip-rule="evenodd" fill="#2574BB" d="M27.416,41.434c-0.792,0.488-5.529,1.236-6.906,1.377
		c-4.628,0.476-9.881-0.101-14.108-1.841c-1.033-0.425-1.828-0.866-2.72-1.367c-0.369-0.208-2.314-1.371-2.455-1.517
		C0.625,38.049,1,38.027,0.878,38.209c0.296,1.142,3.665,3.435,4.761,4.107c11.054,6.774,19.624,4.23,21.628,4.608l0.104,1.771
		c-3.731,0.346-7.59,0.261-11.311-0.337c-1.113-0.179-2.443-0.606-3.396-0.675c1.262,0.897,5.007,2.226,6.871,2.78
		c2.88,0.854,5.083,1.109,8.21,1.59c1.378,3.389,2.272,13.108,8.44,11.922c1.223-0.233,2.738-1.259,3.076-2.14l-0.648,0.317
		c-0.477,0.753-3.65,1.859-6.499-2.339c-1.136-1.674-2.597-5.089-2.823-7.625c2.519-0.076,4.652,0.012,7.167-0.231
		c1.063-0.104,6.049-1.051,6.345-1.002c0.292-1.468,0.398-3.861,0.386-5.386c-0.726,0.01-2.817,0.629-3.592,0.821
		c-1.153,0.285-2.306,0.543-3.486,0.818c-1.862,0.435-5.451,1.271-7.374,1.299l-0.103-1.812c6.165-0.787,9.771-2.355,14.506-3.208
		c0.051-0.97-0.171-5.555-0.526-6.153c-0.175-0.15,0.258-0.192-0.498-0.103l-3.391,0.816c-1.431,0.43-9.212,2.913-9.887,3.002
		c0.125-2.643,1.336-6.48,2.485-8.203c2.572-3.854,5.16-1.21,5.853,0.694c-0.263,0.267-0.518,0.29-0.802,0.467
		c0.207,0.387,0.758,0.837,1.104,1.19c0.401,0.407,0.893,0.788,1.004,1.164c0.446,0.215,0.307,0.376,0.689,0.38l0.028-3.886
		l-0.859,0.311l-0.607-1.141c-0.235-0.112-0.726-0.887-1.101-1.232c-0.388-0.355-1.134-0.716-1.413-0.942
		c-2.14-0.391-1.572-0.082-2.948,0.295c0.542-0.968,1.785-2.262,2.937-2.75c2.143-0.91,2.978,0.069,4.292,0.785
		c-0.999-1.548-3.452-3.116-5.962-1.634c-1.321,0.779-2.367,2.205-3.101,3.548C28.505,33.624,27.839,37.427,27.416,41.434z"/>
	<path fill-rule="evenodd" clip-rule="evenodd" fill="#00A651" d="M30.251,28.875c0.176,0.283-0.132,0.504,0.301-0.037
		c0.326-0.406,0.71-1.436,1.933-2.529c4.151-3.709,8.029,0.556,9.068,3.499c0.494,0.5,2.054,5.038,1.97,5.965
		c0.652,0.807,1.012,7.792,1.019,8.502c0.012,1.003-0.142,7.572-0.887,8.679c0.103,0.802-2.261,8.359-5.886,5.867
		c-0.59-0.404-1.604-1.62-1.837-2.558l0.874-0.302c-0.243-0.492-2.504-2.695-2.776-2.816l-0.074,3.895l0.9-0.241
		c0.54,1.512,2.031,2.731,2.18,3.001c0.759,0.323,1.294,0.779,2.449,0.701c1.125-0.077,1.489-0.608,2.238-0.98
		c-0.498,1.786-2.804,4.914-5.036,5.514c-2.611,0.7-4.531-1.225-5.792-3.065c-0.236-0.343-0.338-0.609-0.672-0.839
		c0.221,1.221,1.36,2.365,1.736,3.334c0.05,0.037,0.045,0.028,0.15,0.152c0.009,0.011,0.125,0.164,0.144,0.19
		c0.084,0.115,0.135,0.199,0.242,0.343c0.217,0.292,0.325,0.42,0.532,0.635c2.364,2.447,4.878,1.51,5.47,1.618
		c0.112-0.104,0.066-0.077,0.241-0.184l0.969-0.433c1.091-0.535,2.13-1.477,2.85-2.402c0.832-1.065,1.652-2.578,2.186-3.878
		l0.374-0.625c-0.012-0.195,1.189-4.08,1.367-4.878c0.191-0.854,0.77-5.075,0.915-5.381c1.095-0.694,6.785-1.856,8.507-2.115
		c8.625-1.295,13.925,0.952,21.212,4.622c1.21,0.608,2.419,1.297,3.5,1.672l-1.067-0.864l-4.175-2.913
		c-0.043-0.03-0.233-0.146-0.28-0.186c-0.254-0.229-0.149-0.045-0.236-0.347c-0.468-0.043-2.129-1.303-2.651-1.664
		c-2.549-1.763-5.729-3.292-8.97-3.981c-2.556-0.542-5.354-0.691-8.099-0.479c-1.31,0.103-2.599,0.243-3.882,0.433
		c-0.831,0.123-3.085,0.651-3.702,0.583l-0.003-1.949c4.385-0.93,8.836-1.427,13.63-1.091c2.159,0.151,4.501,0.497,6.409,1.06
		c3.284,0.968,4.072,2.078,4.988,2.443c-0.715-1.477-2.765-3.153-4.178-4.061l-1.595-1.017c-0.013-0.044-0.046-0.047-0.067-0.073
		c-0.449,0.003-2.255-0.95-2.931-1.204c-1.009-0.378-2.073-0.696-3.186-1.003c-1.111-0.307-2.339-0.528-3.498-0.706
		c-1.13-0.173-2.772-0.226-3.707-0.387l-4.485,0.001c-0.677,0.025-1.423,0.201-2.101,0.041c-0.244-0.901-0.352-1.879-0.583-2.774
		c-0.224-0.862-0.479-1.682-0.755-2.512c-0.292-0.873-0.601-1.6-0.966-2.418c-0.264-0.592-1.023-1.767-1.038-2.165
		c-0.25-0.158-0.077-0.016-0.286-0.242l-0.485-0.684c-0.971-1.298-2.39-2.035-2.513-2.347c-0.55-0.063-1.085-0.422-1.67-0.589
		C33.295,21.205,30.971,27.988,30.251,28.875z"/>
	<path fill-rule="evenodd" clip-rule="evenodd" d="M50.728,75.174v-4.497h0.856l1.798,3.013v-3.013h0.819v4.497h-0.884l-1.771-2.958
		v2.958H50.728L50.728,75.174z M55.135,75.174v-4.497h3.236v0.759h-2.35v0.999h2.186v0.76h-2.186v1.219h2.435v0.761H55.135
		L55.135,75.174z M61.24,73.521v-0.76h1.898v1.795c-0.185,0.185-0.451,0.346-0.803,0.488c-0.349,0.141-0.705,0.211-1.063,0.211
		c-0.458,0-0.855-0.099-1.195-0.296c-0.339-0.199-0.594-0.481-0.766-0.851c-0.171-0.366-0.255-0.769-0.255-1.201
		c0-0.469,0.095-0.886,0.285-1.252c0.191-0.363,0.47-0.645,0.838-0.838c0.28-0.149,0.628-0.226,1.045-0.226
		c0.542,0,0.967,0.118,1.272,0.353c0.304,0.236,0.5,0.559,0.588,0.974l-0.879,0.169c-0.062-0.22-0.178-0.396-0.348-0.524
		c-0.169-0.127-0.38-0.191-0.634-0.191c-0.385,0-0.691,0.126-0.919,0.38c-0.226,0.251-0.34,0.624-0.34,1.119
		c0,0.537,0.115,0.938,0.346,1.205c0.23,0.267,0.531,0.401,0.905,0.401c0.184,0,0.369-0.04,0.554-0.113
		c0.186-0.075,0.346-0.166,0.478-0.271v-0.571H61.24L61.24,73.521z M67.892,75.174h-0.954l-0.377-1.024h-1.752l-0.363,1.024h-0.935
		l1.695-4.497h0.936L67.892,75.174L67.892,75.174z M66.274,73.39l-0.607-1.665l-0.589,1.665H66.274L66.274,73.39z M68.893,75.174
		h0.886v-3.738h1.287v-0.759h-3.466v0.759h1.294V75.174L68.893,75.174z M71.608,75.174v-4.497h0.885v4.497H71.608L71.608,75.174z
		 M74.454,75.174l-1.566-4.497h0.959l1.107,3.328l1.065-3.328h0.941l-1.555,4.497H74.454L74.454,75.174z M77.406,75.174v-4.497
		h3.235v0.759h-2.349v0.999h2.186v0.76h-2.186v1.219h2.434v0.761H77.406L77.406,75.174z M86.885,75.174H85.93l-0.376-1.024h-1.753
		l-0.365,1.024h-0.933l1.696-4.497h0.935L86.885,75.174L86.885,75.174z M85.267,73.39l-0.607-1.665l-0.591,1.665H85.267
		L85.267,73.39z M87.325,75.174v-4.497h0.886v4.497H87.325L87.325,75.174z M89.051,75.174v-4.497h1.857
		c0.468,0,0.808,0.039,1.021,0.12c0.211,0.08,0.38,0.224,0.508,0.43c0.126,0.209,0.19,0.442,0.19,0.708
		c0,0.339-0.095,0.618-0.289,0.838c-0.19,0.221-0.478,0.359-0.86,0.415c0.19,0.116,0.346,0.24,0.468,0.378
		c0.127,0.138,0.294,0.38,0.503,0.73l0.534,0.878h-1.056l-0.633-0.982c-0.228-0.35-0.383-0.569-0.466-0.66
		c-0.086-0.09-0.173-0.152-0.267-0.187c-0.095-0.032-0.244-0.049-0.446-0.049h-0.181v1.878H89.051L89.051,75.174z M89.936,72.578
		h0.654c0.423,0,0.688-0.018,0.792-0.054c0.104-0.039,0.188-0.102,0.248-0.191c0.059-0.091,0.09-0.203,0.09-0.339
		c0-0.152-0.041-0.272-0.118-0.368c-0.08-0.093-0.19-0.152-0.332-0.175c-0.074-0.011-0.287-0.016-0.645-0.016h-0.689V72.578
		L89.936,72.578z M95.126,75.174v-4.497h0.885v4.497H95.126L95.126,75.174z M96.669,72.952c0-0.459,0.065-0.846,0.2-1.158
		c0.097-0.229,0.234-0.435,0.405-0.616c0.173-0.183,0.363-0.319,0.564-0.406c0.274-0.117,0.588-0.179,0.945-0.179
		c0.645,0,1.159,0.206,1.545,0.618c0.387,0.413,0.58,0.986,0.58,1.721c0,0.726-0.191,1.296-0.574,1.707
		c-0.384,0.411-0.898,0.617-1.539,0.617c-0.65,0-1.168-0.205-1.553-0.615C96.859,74.232,96.669,73.67,96.669,72.952L96.669,72.952z
		 M97.577,72.921c0,0.511,0.116,0.896,0.344,1.16c0.23,0.265,0.52,0.396,0.871,0.396c0.355,0,0.643-0.132,0.869-0.393
		c0.228-0.263,0.34-0.653,0.34-1.177c0-0.516-0.11-0.901-0.332-1.154c-0.217-0.256-0.512-0.382-0.877-0.382
		c-0.363,0-0.656,0.129-0.881,0.386C97.689,72.017,97.577,72.402,97.577,72.921L97.577,72.921z M101.601,75.174v-4.497h0.854
		l1.8,3.013v-3.013h0.818v4.497h-0.885l-1.771-2.958v2.958H101.601L101.601,75.174z M105.775,73.716l0.859-0.087
		c0.053,0.296,0.157,0.513,0.314,0.651c0.157,0.14,0.369,0.208,0.637,0.208c0.283,0,0.497-0.062,0.641-0.186
		c0.144-0.122,0.216-0.266,0.216-0.433c0-0.107-0.029-0.198-0.092-0.272c-0.06-0.075-0.165-0.14-0.314-0.194
		c-0.103-0.037-0.338-0.101-0.704-0.196c-0.47-0.122-0.802-0.27-0.992-0.447c-0.268-0.248-0.401-0.551-0.401-0.908
		c0-0.229,0.063-0.444,0.19-0.644c0.126-0.2,0.307-0.354,0.543-0.458c0.237-0.104,0.522-0.157,0.858-0.157
		c0.547,0,0.958,0.124,1.234,0.375c0.277,0.251,0.421,0.584,0.435,1.002L108.313,72c-0.036-0.231-0.116-0.398-0.24-0.501
		c-0.124-0.101-0.309-0.152-0.555-0.152c-0.255,0-0.454,0.054-0.599,0.165c-0.091,0.069-0.138,0.163-0.138,0.279
		c0,0.107,0.043,0.198,0.133,0.274c0.11,0.097,0.378,0.195,0.807,0.302c0.43,0.103,0.745,0.213,0.949,0.324
		c0.206,0.111,0.365,0.263,0.483,0.458c0.114,0.192,0.173,0.432,0.173,0.716c0,0.257-0.068,0.499-0.208,0.725
		c-0.14,0.225-0.336,0.394-0.59,0.501c-0.254,0.11-0.572,0.165-0.953,0.165c-0.551,0-0.974-0.131-1.271-0.394
		C106.008,74.6,105.832,74.219,105.775,73.716L105.775,73.716z M111.774,75.174v-4.497h3.003v0.759h-2.118v1.068h1.831v0.761h-1.831
		v1.909H111.774L111.774,75.174z M115.318,72.952c0-0.459,0.068-0.846,0.202-1.158c0.099-0.229,0.234-0.435,0.407-0.616
		c0.171-0.183,0.361-0.319,0.565-0.406c0.273-0.117,0.586-0.179,0.94-0.179c0.646,0,1.161,0.206,1.549,0.618
		c0.387,0.413,0.579,0.986,0.579,1.721c0,0.726-0.19,1.296-0.575,1.707c-0.382,0.411-0.896,0.617-1.539,0.617
		c-0.649,0-1.168-0.205-1.553-0.615C115.513,74.232,115.318,73.67,115.318,72.952L115.318,72.952z M116.23,72.921
		c0,0.511,0.115,0.896,0.344,1.16c0.229,0.265,0.519,0.396,0.871,0.396c0.354,0,0.643-0.132,0.868-0.393
		c0.227-0.263,0.34-0.653,0.34-1.177c0-0.516-0.109-0.901-0.332-1.154c-0.218-0.256-0.511-0.382-0.876-0.382
		c-0.364,0-0.657,0.129-0.881,0.386C116.342,72.017,116.23,72.402,116.23,72.921L116.23,72.921z M120.25,75.174v-4.497h1.859
		c0.468,0,0.806,0.039,1.02,0.12c0.211,0.08,0.38,0.224,0.508,0.43c0.128,0.209,0.192,0.442,0.192,0.708
		c0,0.339-0.097,0.618-0.289,0.838c-0.192,0.221-0.479,0.359-0.859,0.415c0.188,0.116,0.345,0.24,0.467,0.378
		c0.125,0.138,0.292,0.38,0.501,0.73l0.534,0.878h-1.056l-0.633-0.982c-0.228-0.35-0.381-0.569-0.466-0.66
		c-0.084-0.09-0.173-0.152-0.267-0.187c-0.095-0.032-0.244-0.049-0.448-0.049h-0.177v1.878H120.25L120.25,75.174z M121.137,72.578
		h0.652c0.424,0,0.686-0.018,0.792-0.054c0.104-0.039,0.188-0.102,0.249-0.191c0.06-0.091,0.089-0.203,0.089-0.339
		c0-0.152-0.041-0.272-0.118-0.368c-0.08-0.093-0.188-0.152-0.332-0.175c-0.072-0.011-0.285-0.016-0.645-0.016h-0.688V72.578
		L121.137,72.578z M126.38,75.174v-4.462h0.885v3.701h2.193v0.761H126.38L126.38,75.174z M130.054,75.174v-4.497h0.885v4.497
		H130.054L130.054,75.174z M131.781,75.174v-4.497h3.002v0.759h-2.119v1.068h1.832v0.761h-1.832v1.909H131.781L131.781,75.174z
		 M135.508,75.174v-4.497h3.235v0.759h-2.349v0.999h2.186v0.76h-2.186v1.219h2.434v0.761H135.508z"/>
</g>
</svg>
